<svg version="1.2" xmlns="http://www.w3.org/2000/svg" viewBox="0 0 100% 40%" width="100%" height="100%">
	<title>Header</title>
	<defs>
		<linearGradient id="g1" x2="1" gradientUnits="userSpaceOnUse" gradientTransform="matrix(0,-30.998,14.325,0,90.987,33.05)">
			<stop offset="0" stop-color="#8c2727"/>
			<stop offset="1" stop-color="#d67642"/>
		</linearGradient>
		<linearGradient id="g2" x2="1" gradientUnits="userSpaceOnUse" gradientTransform="matrix(0,30.998,-14.325,0,90.987,90.106)">
			<stop offset="0" stop-color="#8c2727"/>
			<stop offset="1" stop-color="#d67642"/>
		</linearGradient>
		<linearGradient id="g3" x2="1" gradientUnits="userSpaceOnUse" gradientTransform="matrix(30.998,0,0,14.325,153.054,28.039)">
			<stop offset="0" stop-color="#8c2727"/>
			<stop offset="1" stop-color="#d67642"/>
		</linearGradient>
		<linearGradient id="g4" x2="1" gradientUnits="userSpaceOnUse" gradientTransform="matrix(-30.998,0,0,-14.325,95.998,28.039)">
			<stop offset="0" stop-color="#8c2727"/>
			<stop offset="1" stop-color="#d67642"/>
		</linearGradient>
		<linearGradient id="g5" x2="1" gradientUnits="userSpaceOnUse" gradientTransform="matrix(21.919,21.919,-10.129,10.129,168.415,58.035)">
			<stop offset="0" stop-color="#8c2727"/>
			<stop offset="1" stop-color="#d67642"/>
		</linearGradient>
		<linearGradient id="g6" x2="1" gradientUnits="userSpaceOnUse" gradientTransform="matrix(-21.919,-21.919,10.129,-10.129,128.07,17.69)">
			<stop offset="0" stop-color="#8c2727"/>
			<stop offset="1" stop-color="#d67642"/>
		</linearGradient>
		<linearGradient id="g7" x2="1" gradientUnits="userSpaceOnUse" gradientTransform="matrix(21.919,-21.919,10.129,10.129,120.982,17.69)">
			<stop offset="0" stop-color="#8c2727"/>
			<stop offset="1" stop-color="#d67642"/>
		</linearGradient>
		<linearGradient id="g8" x2="1" gradientUnits="userSpaceOnUse" gradientTransform="matrix(-21.919,21.919,-10.129,-10.129,80.638,58.035)">
			<stop offset="0" stop-color="#8c2727"/>
			<stop offset="1" stop-color="#d67642"/>
		</linearGradient>
		<radialGradient id="g9" cx="0" cy="0" r="1" gradientUnits="userSpaceOnUse" gradientTransform="matrix(57.017,0,0,57.017,128.196,28.65)">
			<stop offset=".022" stop-color="#d6771a"/>
			<stop offset="1" stop-color="#e06036"/>
		</radialGradient>
		<linearGradient id="g10" x2="1" gradientUnits="userSpaceOnUse" gradientTransform="matrix(9.853,0,0,2.579,119.771,39.443)">
			<stop offset="0" stop-color="#6e230c"/>
			<stop offset=".994" stop-color="#670025"/>
		</linearGradient>
		<linearGradient id="g11" x2="1" gradientUnits="userSpaceOnUse" gradientTransform="matrix(0,14.708,-8.167,0,137.808,39.551)">
			<stop offset="0" stop-color="#8c2727"/>
			<stop offset="1" stop-color="#d67642"/>
		</linearGradient>
		<linearGradient id="g12" x2="1" gradientUnits="userSpaceOnUse" gradientTransform="matrix(9.853,0,0,2.579,119.771,83.018)">
			<stop offset="0" stop-color="#6e230c"/>
			<stop offset=".994" stop-color="#670025"/>
		</linearGradient>
		<linearGradient id="g13" x2="1" gradientUnits="userSpaceOnUse" gradientTransform="matrix(0,-14.708,8.167,0,137.808,82.91)">
			<stop offset="0" stop-color="#8c2727"/>
			<stop offset="1" stop-color="#d67642"/>
		</linearGradient>
		<linearGradient id="g14" x2="1" gradientUnits="userSpaceOnUse" gradientTransform="matrix(0,9.853,-2.579,0,146.485,56.304)">
			<stop offset="0" stop-color="#6e230c"/>
			<stop offset=".994" stop-color="#670025"/>
		</linearGradient>
		<linearGradient id="g15" x2="1" gradientUnits="userSpaceOnUse" gradientTransform="matrix(-14.708,0,0,-8.167,146.377,74.341)">
			<stop offset="0" stop-color="#8c2727"/>
			<stop offset="1" stop-color="#d67642"/>
		</linearGradient>
		<linearGradient id="g16" x2="1" gradientUnits="userSpaceOnUse" gradientTransform="matrix(0,9.853,-2.579,0,102.91,56.304)">
			<stop offset="0" stop-color="#6e230c"/>
			<stop offset=".994" stop-color="#670025"/>
		</linearGradient>
		<linearGradient id="g17" x2="1" gradientUnits="userSpaceOnUse" gradientTransform="matrix(14.708,0,0,8.167,103.018,74.341)">
			<stop offset="0" stop-color="#8c2727"/>
			<stop offset="1" stop-color="#d67642"/>
		</linearGradient>
		<linearGradient id="g18" x2="1" gradientUnits="userSpaceOnUse" gradientTransform="matrix(-6.967,6.967,-1.824,-1.824,143.587,73.153)">
			<stop offset="0" stop-color="#6e230c"/>
			<stop offset=".994" stop-color="#670025"/>
		</linearGradient>
		<linearGradient id="g19" x2="1" gradientUnits="userSpaceOnUse" gradientTransform="matrix(-10.4,-10.4,5.775,-5.775,130.756,85.831)">
			<stop offset="0" stop-color="#8c2727"/>
			<stop offset="1" stop-color="#d67642"/>
		</linearGradient>
		<linearGradient id="g20" x2="1" gradientUnits="userSpaceOnUse" gradientTransform="matrix(-6.967,6.967,-1.824,-1.824,112.774,42.341)">
			<stop offset="0" stop-color="#6e230c"/>
			<stop offset=".994" stop-color="#670025"/>
		</linearGradient>
		<linearGradient id="g21" x2="1" gradientUnits="userSpaceOnUse" gradientTransform="matrix(10.4,10.4,-5.775,5.775,100.097,55.171)">
			<stop offset="0" stop-color="#8c2727"/>
			<stop offset="1" stop-color="#d67642"/>
		</linearGradient>
		<linearGradient id="g22" x2="1" gradientUnits="userSpaceOnUse" gradientTransform="matrix(6.967,6.967,-1.824,1.824,136.62,42.341)">
			<stop offset="0" stop-color="#6e230c"/>
			<stop offset=".994" stop-color="#670025"/>
		</linearGradient>
		<linearGradient id="g23" x2="1" gradientUnits="userSpaceOnUse" gradientTransform="matrix(-10.4,10.4,-5.775,-5.775,149.298,55.171)">
			<stop offset="0" stop-color="#8c2727"/>
			<stop offset="1" stop-color="#d67642"/>
		</linearGradient>
		<linearGradient id="g24" x2="1" gradientUnits="userSpaceOnUse" gradientTransform="matrix(6.967,6.967,-1.824,1.824,105.808,73.153)">
			<stop offset="0" stop-color="#6e230c"/>
			<stop offset=".994" stop-color="#670025"/>
		</linearGradient>
		<linearGradient id="g25" x2="1" gradientUnits="userSpaceOnUse" gradientTransform="matrix(10.4,-10.4,5.775,5.775,118.638,85.831)">
			<stop offset="0" stop-color="#8c2727"/>
			<stop offset="1" stop-color="#d67642"/>
		</linearGradient>
		<radialGradient id="g26" cx="0" cy="0" r="1" gradientUnits="userSpaceOnUse" gradientTransform="matrix(10.817,0,0,10.817,124.218,61.283)">
			<stop offset=".022" stop-color="#d6771a"/>
			<stop offset="1" stop-color="#e06036"/>
		</radialGradient>
		<linearGradient id="g27" x2="1" gradientUnits="userSpaceOnUse" gradientTransform="matrix(0,81.106,-245.282,0,138.051,50.974)">
			<stop offset=".022" stop-color="#f7913e"/>
			<stop offset=".994" stop-color="#eb7254"/>
		</linearGradient>
		<linearGradient id="g28" x2="1" gradientUnits="userSpaceOnUse" gradientTransform="matrix(195.922,0,0,40.322,26.68,91.86)">
			<stop offset="0" stop-color="#ad1f1f"/>
			<stop offset="1" stop-color="#bd432d"/>
		</linearGradient>
		<linearGradient id="g29" x2="1" gradientUnits="userSpaceOnUse" gradientTransform="matrix(0,45.788,-98.117,0,135.325,112.327)">
			<stop offset="0" stop-color="#ad1f1f"/>
			<stop offset="1" stop-color="#bd432d"/>
		</linearGradient>
		<linearGradient id="g30" x2="1" gradientUnits="userSpaceOnUse" gradientTransform="matrix(0,56.352,-246.794,0,148.252,73.564)">
			<stop offset="0" stop-color="#cf7c7d"/>
			<stop offset="1" stop-color="#ffffff"/>
		</linearGradient>
	</defs>
	<style>
		.s0 { fill: url(#g1) } 
		.s1 { opacity: .4;mix-blend-mode: multiply;fill: #ab2781 } 
		.s2 { opacity: .5;mix-blend-mode: soft-light;fill: #ffba81 } 
		.s3 { opacity: .3;mix-blend-mode: soft-light;fill: #ffd8ba } 
		.s4 { fill: #ffffff } 
		.s5 { fill: url(#g2) } 
		.s6 { fill: url(#g3) } 
		.s7 { fill: url(#g4) } 
		.s8 { fill: url(#g5) } 
		.s9 { fill: url(#g6) } 
		.s10 { fill: url(#g7) } 
		.s11 { fill: url(#g8) } 
		.s12 { fill: url(#g9) } 
		.s13 { opacity: .5;mix-blend-mode: multiply;fill: #b35c5c } 
		.s14 { opacity: .3;mix-blend-mode: multiply;fill: #b53533 } 
		.s15 { fill: url(#g10) } 
		.s16 { fill: url(#g11) } 
		.s17 { fill: url(#g12) } 
		.s18 { fill: url(#g13) } 
		.s19 { fill: url(#g14) } 
		.s20 { fill: url(#g15) } 
		.s21 { fill: url(#g16) } 
		.s22 { fill: url(#g17) } 
		.s23 { fill: url(#g18) } 
		.s24 { fill: url(#g19) } 
		.s25 { fill: url(#g20) } 
		.s26 { fill: url(#g21) } 
		.s27 { fill: url(#g22) } 
		.s28 { fill: url(#g23) } 
		.s29 { fill: url(#g24) } 
		.s30 { fill: url(#g25) } 
		.s31 { fill: url(#g26) } 
		.s32 { fill: #ffd8ba } 
		.s33 { opacity: .5;mix-blend-mode: multiply;fill: #e09781 } 
		.s34 { opacity: .3;mix-blend-mode: soft-light;fill: #f6f4ea } 
		.s35 { opacity: .2;mix-blend-mode: soft-light;fill: #f6f4ea } 
		.s36 { opacity: .5;mix-blend-mode: multiply;fill: #be2f55 } 
		.s37 { fill: url(#g27) } 
		.s38 { fill: url(#g28) } 
		.s39 { fill: url(#g29) } 
		.s40 { fill: #d5512b } 
		.s41 { fill: #7b0c13 } 
		.s42 { opacity: .6;mix-blend-mode: soft-light;fill: #faa882 } 
		.s43 { opacity: .2;mix-blend-mode: multiply;fill: #c60055 } 
		.s44 { opacity: .5;mix-blend-mode: multiply;fill: #c60055 } 
		.s45 { opacity: .5;mix-blend-mode: multiply;fill: url(#g30) } 
		.s46 { fill: #f5ab69 } 
		.s47 { opacity: .1;mix-blend-mode: multiply;fill: #b53533 } 
		.s48 { fill: #8a0707 } 
		.s49 { opacity: .8;mix-blend-mode: multiply;fill: #c60055 } 
		.s50 { fill: #d1572e } 
	</style>
	<g id="&lt;Group&gt;">
		<g id="&lt;Group&gt;">
			<g id="&lt;Group&gt;">
				<path id="&lt;Path&gt;" class="s0" d="m131.6 12.1c0.7-4.9-1.6-9.7-7.1-10-5.5-0.4-7.7 5.6-7 10 0.5 3.8 4.2 11.3 2.9 13.4-1.3 2.1-1.9 4.8-1.9 4.8 3.6 3.5 6 2.7 6 2.7 0 0 2.5 0.8 6-2.7 0 0-0.5-2.7-1.9-4.8-1.2-2.1 2.4-9.6 3-13.4z"/>
				<path id="&lt;Path&gt;" class="s1" d="m117.9 10.2c8.9 7.6 12.1 3 12.7 0.7 0.7-2.2 1.1 2.4-2 9.3-3 7-6.6 5-8.6-0.1-2-5.1-3.1-10.7-2.1-9.9z"/>
				<path id="&lt;Path&gt;" class="s2" d="m120.1 4.3c-4.3 5.3 9.7 8.5 10.2 4.7 0.5-3.9-6.3-9.5-10.2-4.7z"/>
				<path id="&lt;Path&gt;" class="s3" d="m119.9 5.1c-1.1 3.6 11 2.8 8.5-0.2-2.4-3-7.4-3.4-8.5 0.2z"/>
				<path id="&lt;Path&gt;" class="s4" d="m125.3 3.4c-0.3 1.7 1.9 1.3 1.7 0.6-0.2-0.7-1.7-1.1-1.7-0.6z"/>
				<path id="&lt;Path&gt;" class="s1" d="m130.4 11.9c-4.1 4.8-6.8 1.2-7.5 2.8-0.8 1.6-0.2 5.6 2.7 5.7 4.7 0.2 5.9-9.7 4.8-8.5z"/>
				<path id="&lt;Path&gt;" class="s1" d="m128.1 23.8c0.1-1.5-2.3 1.8-4.1 2.1-2.1 0.3-2.9-1.7-3.3-0.7-0.4 1-1.7 3.4-1.6 4.5 0.1 1.2 4.3 4.1 8.3 2.9 4-1.3 2.4-4 2.3-4.9-0.2-0.9-1.8-2.8-1.6-3.9z"/>
			</g>
			<g id="&lt;Group&gt;">
				<path id="&lt;Path&gt;" class="s5" d="m131.6 111.1c0.7 4.8-1.6 9.7-7.1 10-5.5 0.3-7.7-5.6-7-10 0.5-3.9 4.2-11.4 2.9-13.4-1.3-2.1-1.9-4.8-1.9-4.8 3.6-3.6 6-2.7 6-2.7 0 0 2.5-0.9 6 2.7 0 0-0.5 2.7-1.9 4.8-1.2 2 2.4 9.5 3 13.4z"/>
				<path id="&lt;Path&gt;" class="s1" d="m117.9 113c8.9-7.7 12.1-3 12.7-0.8 0.7 2.3 1.1-2.4-2-9.3-3-6.9-6.6-4.9-8.6 0.2-2 5-3.1 10.7-2.1 9.9z"/>
				<path id="&lt;Path&gt;" class="s2" d="m120.1 118.9c-4.3-5.3 9.7-8.6 10.2-4.7 0.5 3.8-6.3 9.5-10.2 4.7z"/>
				<path id="&lt;Path&gt;" class="s3" d="m119.9 118c-1.1-3.5 11-2.7 8.5 0.3-2.4 3-7.4 3.4-8.5-0.3z"/>
				<path id="&lt;Path&gt;" class="s4" d="m125.3 119.8c-0.3-1.8 1.9-1.3 1.7-0.6-0.2 0.6-1.7 1.1-1.7 0.6z"/>
				<path id="&lt;Path&gt;" class="s1" d="m130.4 111.2c-4.1-4.7-6.8-1.2-7.5-2.8-0.8-1.6-0.2-5.6 2.7-5.7 4.7-0.1 5.9 9.7 4.8 8.5z"/>
				<path id="&lt;Path&gt;" class="s1" d="m128.1 99.4c0.1 1.5-2.3-1.9-4.1-2.2-2.1-0.3-2.9 1.7-3.3 0.8-0.4-1-1.7-3.4-1.6-4.6 0.1-1.1 4.3-4.1 8.3-2.8 4 1.2 2.4 4 2.3 4.9-0.2 0.9-1.8 2.8-1.6 3.9z"/>
			</g>
			<g id="&lt;Group&gt;">
				<path id="&lt;Path&gt;" class="s6" d="m174 68.6c4.9 0.7 9.7-1.5 10-7 0.4-5.6-5.6-7.7-10-7.1-3.8 0.6-11.3 4.2-13.4 2.9-2.1-1.3-4.8-1.8-4.8-1.8-3.5 3.5-2.7 6-2.7 6 0 0-0.8 2.4 2.7 6 0 0 2.7-0.6 4.8-1.9 2.1-1.3 9.6 2.4 13.4 2.9z"/>
				<path id="&lt;Path&gt;" class="s1" d="m175.9 54.9c-7.6 8.9-3 12.1-0.7 12.8 2.3 0.7-2.4 1.1-9.3-2-7-3.1-5-6.7 0.1-8.7 5.1-2 10.7-3 9.9-2.1z"/>
				<path id="&lt;Path&gt;" class="s2" d="m181.8 57.2c-5.3-4.3-8.5 9.6-4.7 10.2 3.9 0.5 9.5-6.4 4.7-10.2z"/>
				<path id="&lt;Path&gt;" class="s3" d="m181 56.9c-3.6-1.1-2.7 11.1 0.2 8.6 3-2.5 3.4-7.5-0.2-8.6z"/>
				<path id="&lt;Path&gt;" class="s4" d="m178.6 56.7c-1.8-0.2-1.3 2-0.6 1.8 0.7-0.2 1.1-1.7 0.6-1.8z"/>
				<path id="&lt;Path&gt;" class="s1" d="m174.2 67.5c-4.8-4.1-1.2-6.9-2.8-7.6-1.6-0.7-5.6-0.2-5.7 2.7-0.2 4.8 9.7 5.9 8.5 4.9z"/>
				<path id="&lt;Path&gt;" class="s1" d="m162.3 65.1c1.5 0.2-1.8-2.3-2.1-4.1-0.3-2 1.7-2.9 0.7-3.2-1-0.4-3.4-1.7-4.5-1.6-1.2 0-4.1 4.2-2.9 8.2 1.3 4 4 2.5 4.9 2.3 0.9-0.2 2.9-1.7 3.9-1.6z"/>
			</g>
			<g id="&lt;Group&gt;">
				<path id="&lt;Path&gt;" class="s7" d="m75.1 68.6c-4.9 0.7-9.8-1.5-10.1-7-0.3-5.6 5.6-7.7 10.1-7.1 3.8 0.6 11.3 4.2 13.3 2.9 2.1-1.3 4.8-1.8 4.8-1.8 3.6 3.5 2.7 6 2.7 6 0 0 0.9 2.4-2.7 6 0 0-2.7-0.6-4.8-1.9-2-1.3-9.5 2.4-13.3 2.9z"/>
				<path id="&lt;Path&gt;" class="s1" d="m73.2 54.9c7.6 8.9 2.9 12.1 0.7 12.8-2.3 0.7 2.4 1.1 9.3-2 6.9-3.1 4.9-6.7-0.2-8.7-5-2-10.6-3-9.8-2.1z"/>
				<path id="&lt;Path&gt;" class="s2" d="m67.2 57.2c5.3-4.3 8.6 9.6 4.7 10.2-3.8 0.5-9.5-6.4-4.7-10.2z"/>
				<path id="&lt;Path&gt;" class="s3" d="m68.1 56.9c3.5-1.1 2.7 11.1-0.3 8.6-3-2.5-3.4-7.5 0.3-8.6z"/>
				<path id="&lt;Path&gt;" class="s4" d="m67.3 57.4c1.7-0.2 1.2 2 0.6 1.8-0.7-0.2-1.2-1.8-0.6-1.8z"/>
				<path id="&lt;Path&gt;" class="s1" d="m74.9 67.5c4.8-4.1 1.2-6.9 2.8-7.6 1.6-0.7 5.6-0.2 5.7 2.7 0.1 4.8-9.7 5.9-8.5 4.9z"/>
				<path id="&lt;Path&gt;" class="s1" d="m86.7 65.1c-1.5 0.2 1.9-2.3 2.2-4.1 0.3-2-1.7-2.9-0.7-3.2 0.9-0.4 3.3-1.7 4.5-1.6 1.1 0 4.1 4.2 2.8 8.2-1.2 4-4 2.5-4.9 2.3-0.8-0.2-2.8-1.7-3.9-1.6z"/>
			</g>
			<g id="&lt;Group&gt;">
				<path id="&lt;Path&gt;" class="s8" d="m154.5 101.5c3 4 8 5.8 12.1 2.2 4.2-3.7 1.5-9.4-2.1-12.1-3.1-2.4-11-5.1-11.5-7.4-0.6-2.4-2.1-4.7-2.1-4.7-5 0-6.1 2.3-6.1 2.3 0 0-2.4 1.1-2.4 6.2 0 0 2.3 1.5 4.7 2 2.4 0.6 5.1 8.4 7.4 11.5z"/>
				<path id="&lt;Path&gt;" class="s1" d="m165.6 93.2c-11.7 0.9-10.7 6.5-9.6 8.5 1.2 2.1-2.4-0.9-5.2-8-2.7-7 1.3-8.2 6.3-6 5 2.2 9.7 5.4 8.5 5.5z"/>
				<path id="&lt;Path&gt;" class="s2" d="m168.2 99c-0.8-6.8-12.9 0.8-10.6 3.9 2.4 3.1 11.2 2.2 10.6-3.9z"/>
				<path id="&lt;Path&gt;" class="s3" d="m167.7 98.2c-1.7-3.3-9.7 5.9-5.8 6.3 3.8 0.3 7.6-2.9 5.8-6.3z"/>
				<path id="&lt;Path&gt;" class="s4" d="m165.2 103.2c-1.1-1.4-2.3 0.6-1.7 0.9 0.6 0.3 2-0.4 1.7-0.9z"/>
				<path id="&lt;Path&gt;" class="s1" d="m155.5 100.9c-0.5-6.3 4-5.7 3.3-7.4-0.6-1.6-3.8-4-5.9-2.1-3.5 3.3 2.7 11.1 2.6 9.5z"/>
				<path id="&lt;Path&gt;" class="s1" d="m148.7 90.8c1 1.2 0.4-2.9 1.4-4.4 1.3-1.7 3.3-0.9 2.8-1.8-0.4-0.9-1.1-3.6-2-4.3-0.9-0.8-5.9 0.1-7.9 3.8-1.9 3.7 1.1 4.6 1.9 5.1 0.7 0.5 3.2 0.8 3.8 1.6z"/>
			</g>
			<g id="&lt;Group&gt;">
				<path id="&lt;Path&gt;" class="s9" d="m84.6 31.6c-4-3-5.8-8-2.2-12.1 3.7-4.2 9.4-1.5 12.1 2.1 2.4 3.1 5.1 11 7.4 11.5 2.5 0.6 4.7 2.1 4.7 2.1 0 5-2.3 6.1-2.3 6.1 0 0-1.1 2.4-6.2 2.4 0 0-1.5-2.3-2-4.7-0.5-2.4-8.4-5.1-11.5-7.4z"/>
				<path id="&lt;Path&gt;" class="s1" d="m92.9 20.5c-0.9 11.7-6.5 10.7-8.5 9.6-2.1-1.1 0.9 2.4 8 5.2 7 2.7 8.2-1.3 6-6.3-2.2-4.9-5.4-9.7-5.5-8.5z"/>
				<path id="&lt;Path&gt;" class="s2" d="m87.1 17.9c6.8 0.8-0.7 12.9-3.9 10.6-3.1-2.4-2.2-11.2 3.9-10.6z"/>
				<path id="&lt;Path&gt;" class="s3" d="m87.9 18.4c3.3 1.7-5.9 9.7-6.3 5.8-0.3-3.8 2.9-7.6 6.3-5.8z"/>
				<path id="&lt;Path&gt;" class="s4" d="m82.9 20.9c1.4 1.1-0.5 2.4-0.9 1.7-0.3-0.6 0.4-2 0.9-1.7z"/>
				<path id="&lt;Path&gt;" class="s1" d="m85.2 30.6c6.3 0.5 5.7-4 7.4-3.3 1.6 0.6 4 3.8 2.1 5.9-3.3 3.5-11.1-2.7-9.5-2.6z"/>
				<path id="&lt;Path&gt;" class="s1" d="m95.3 37.4c-1.2-1 2.9-0.4 4.4-1.4 1.7-1.3 0.9-3.3 1.8-2.8 1 0.4 3.6 1.1 4.3 2 0.8 0.9-0.1 5.9-3.8 7.9-3.7 1.9-4.6-1.1-5.1-1.8-0.5-0.8-0.8-3.3-1.6-3.9z"/>
			</g>
			<g id="&lt;Group&gt;">
				<path id="&lt;Path&gt;" class="s10" d="m164.5 31.6c3.9-3 5.8-8 2.1-12.1-3.7-4.2-9.4-1.5-12.1 2.1-2.3 3.1-5 11-7.4 11.5-2.4 0.6-4.7 2.1-4.7 2.1 0 5 2.4 6.1 2.4 6.1 0 0 1.1 2.4 6.1 2.4 0 0 1.5-2.3 2.1-4.7 0.5-2.4 8.4-5.1 11.5-7.4z"/>
				<path id="&lt;Path&gt;" class="s1" d="m156.1 20.5c0.9 11.7 6.5 10.7 8.6 9.6 2-1.1-1 2.4-8 5.2-7.1 2.7-8.2-1.3-6.1-6.3 2.2-4.9 5.4-9.7 5.5-8.5z"/>
				<path id="&lt;Path&gt;" class="s2" d="m161.9 17.9c-6.8 0.8 0.8 12.9 3.9 10.6 3.1-2.4 2.3-11.2-3.9-10.6z"/>
				<path id="&lt;Path&gt;" class="s3" d="m161.1 18.4c-3.3 1.7 5.9 9.7 6.3 5.8 0.4-3.8-2.9-7.6-6.3-5.8z"/>
				<path id="&lt;Path&gt;" class="s4" d="m160.5 18.6c-1.4 1 0.5 2.3 0.8 1.6 0.3-0.6-0.4-2-0.8-1.6z"/>
				<path id="&lt;Path&gt;" class="s1" d="m163.8 30.6c-6.3 0.5-5.7-4-7.3-3.3-1.7 0.6-4.1 3.8-2.1 5.9 3.2 3.5 11-2.7 9.4-2.6z"/>
				<path id="&lt;Path&gt;" class="s1" d="m153.8 37.4c1.1-1-3-0.4-4.4-1.4-1.7-1.3-0.9-3.3-1.9-2.8-0.9 0.4-3.5 1.1-4.3 2-0.7 0.9 0.1 5.9 3.8 7.9 3.7 1.9 4.6-1.1 5.1-1.8 0.5-0.8 0.8-3.3 1.7-3.9z"/>
			</g>
			<g id="&lt;Group&gt;">
				<path id="&lt;Path&gt;" class="s11" d="m94.5 101.5c-2.9 4-7.9 5.8-12.1 2.2-4.1-3.7-1.4-9.4 2.2-12.1 3.1-2.4 10.9-5.1 11.5-7.4 0.5-2.4 2-4.7 2-4.7 5.1 0 6.2 2.3 6.2 2.3 0 0 2.3 1.1 2.3 6.2 0 0-2.3 1.5-4.7 2-2.3 0.6-5 8.4-7.4 11.5z"/>
				<path id="&lt;Path&gt;" class="s1" d="m83.5 93.2c11.7 0.9 10.7 6.5 9.5 8.5-1.1 2.1 2.5-0.9 5.2-8 2.7-7-1.2-8.2-6.2-6-5 2.2-9.7 5.4-8.5 5.5z"/>
				<path id="&lt;Path&gt;" class="s2" d="m80.9 99c0.7-6.8 12.9 0.8 10.5 3.9-2.3 3.1-11.2 2.2-10.5-3.9z"/>
				<path id="&lt;Path&gt;" class="s3" d="m81.3 98.2c1.7-3.3 9.8 5.9 5.9 6.3-3.9 0.3-7.7-2.9-5.9-6.3z"/>
				<path id="&lt;Path&gt;" class="s4" d="m83.9 103.2c1.1-1.4 2.3 0.6 1.7 0.9-0.6 0.3-2-0.4-1.7-0.9z"/>
				<path id="&lt;Path&gt;" class="s1" d="m93.6 100.9c0.5-6.3-4-5.7-3.4-7.4 0.6-1.6 3.9-4 6-2.1 3.4 3.3-2.7 11.1-2.6 9.5z"/>
				<path id="&lt;Path&gt;" class="s1" d="m100.3 90.8c-0.9 1.2-0.3-2.9-1.4-4.4-1.2-1.7-3.2-0.9-2.8-1.8 0.4-0.9 1.2-3.6 2.1-4.3 0.9-0.8 5.9 0.1 7.8 3.8 2 3.7-1 4.6-1.8 5.1-0.8 0.5-3.2 0.8-3.9 1.6z"/>
			</g>
		</g>
		<path id="&lt;Compound Path&gt;" fill-rule="evenodd" class="s12" d="m124.2 95c-17.8-0.2-33.1-15.7-32.4-33.7 0.3-7.3 3.2-14.5 7.8-20.5 1.6-2.1 3.5-4 5.5-5.7 5.3-4.5 12-7.4 19.1-7.5 12.4-0.1 22.9 8.1 28.4 18.9 1.8 3.6 3.1 7.5 3.7 11.4q0.2 1.7 0.3 3.4c0.7 18-14.2 34-32.4 33.7zm17.8-33.7q0-0.9-0.1-1.9c-0.4-3.1-1.7-6.1-3.5-8.7-3.2-4.7-8.4-8-14.2-7.9-2.7 0-5.3 0.8-7.7 2.2-2.9 1.6-5.3 4-7.1 6.8-1.8 2.9-2.9 6.2-3 9.5-0.2 9.6 8.3 18.4 17.8 18.6 9.9 0.2 18.1-9 17.8-18.6z"/>
		<path id="&lt;Compound Path&gt;" fill-rule="evenodd" class="s13" d="m124.2 83.7c-12.4 0-22.4-10-22.4-22.4 0-12.4 10-22.4 22.4-22.4 12.4 0 22.4 10 22.4 22.4 0 12.4-10 22.4-22.4 22.4zm17.6-22c0-10.1-7.6-18.9-17.6-18.8-9.7 0-17.9 9.4-17.7 19.2 0.2 10 8.9 17.7 17.7 17.8 10.1 0 17.6-8.2 17.6-18.2z"/>
		<path id="&lt;Path&gt;" class="s14" d="m112.5 30.3c6.1 5.6 16.7 10.4 32.5 6.2 0 0-1.8-2.1-3.1-2.7 0 0-6.8 5-16 2.3-9.1-2.6-11.7-6.5-11.7-6.5z"/>
		<path id="&lt;Path&gt;" class="s14" d="m112.2 42.4c-2.7 1.7-5 3.9-6.7 6.5-2.7-2.3-4.7-5-5.9-8.1 1.6-2.1 3.5-4 5.5-5.7 1.1 2 3.2 4.6 7.1 7.3z"/>
		<path id="&lt;Path&gt;" class="s14" d="m156.3 57.9q-4.9 1-9.8 1.3c-0.3-3.3-1.3-6.5-2.9-9.2 5-1.1 8.2-3 9-3.5 1.8 3.6 3.1 7.5 3.7 11.4z"/>
		<path id="&lt;Path&gt;" class="s14" d="m92.8 54.9c8.4 9.5 15.6 35.5 15.6 35.5 0 0-4.1-2.5-6.1-4.1 0 0 1.4-6.8-2.7-15.6-4.1-8.8-7.7-11.2-7.7-11.2z"/>
		<path id="&lt;Path&gt;" class="s14" d="m117.3 94.1c21.1-4 38.5-24.7 38.5-24.7 0 0 0.7-4 0.7-7.5 0 0-9.6 16.1-24.4 24-14.8 7.8-20.8 6.4-20.8 6.4z"/>
		<path id="&lt;Path&gt;" class="s1" d="m103.6 53.4c-0.6 2.9 4 1.5 5.1-0.8 1-2.3 6.1-8.8 13.6-9.8 7.4-1 12.7 2.6 17.5 9.5 1.3 1.8 5.5 3.8 4.8 0.6-0.8-3.1-9.8-14.8-20.8-14.7-10.4 0.1-18.9 9.3-20.2 15.2z"/>
		<g id="&lt;Group&gt;">
			<path id="&lt;Path&gt;" class="s15" d="m119.8 41c4.4 2.2 9.8 0.2 9.8 0.2 0 0-1.5-2-5.9-1.7-3.5 0.2-3.9 1.5-3.9 1.5z"/>
			<path id="&lt;Path&gt;" class="s16" d="m128.6 41.2c0 0-0.3 0.6-0.7 1.5-0.3 0.5-0.5 1.1-0.8 1.7-0.2 0.7-0.5 1.6-0.6 2.3l-0.5 7.6h-3.3v-7.9q-0.3-1.5-0.6-2.5-0.3-1.1-0.6-1.8c-0.6-1.1-1-1.5-1-1.5 0 0 3.8-2.7 8.1 0.6z"/>
			<path id="&lt;Path&gt;" class="s2" d="m122.1 41.2c-0.3 2.3 2.8 4.7 3.8 4 0.9-0.7 1.7-2.7 0.8-4-0.9-1.5-4.5-1.5-4.6 0z"/>
			<path id="&lt;Path&gt;" class="s1" d="m127.1 44.4c-0.2 0.7-0.5 1.6-0.6 2.3l-0.5 7.6h-3.3v-7.9q-0.3-1.5-0.6-2.5c0.5 0.7 3 3.6 5 0.4z"/>
			<path id="&lt;Path&gt;" class="s1" d="m128.6 41.2c0 0-0.3 0.6-0.7 1.5q-0.2 0-0.2 0c-0.2-1.9-2.1-2.9-4-2.7-1.6 0.2-2.3 1.2-2.2 2.1-0.6-1.1-1-1.5-1-1.5 0 0 3.8-2.7 8.1 0.6z"/>
		</g>
		<g id="&lt;Group&gt;">
			<path id="&lt;Path&gt;" class="s17" d="m119.8 81.5c4.4-2.2 9.8-0.3 9.8-0.3 0 0-1.5 2.1-5.9 1.8-3.5-0.3-3.9-1.5-3.9-1.5z"/>
			<path id="&lt;Path&gt;" class="s18" d="m128.6 81.3c0 0-0.3-0.6-0.7-1.5-0.3-0.5-0.5-1.1-0.8-1.7-0.2-0.8-0.5-1.6-0.6-2.4l-0.5-7.5h-3.3v7.9q-0.3 1.4-0.6 2.5-0.3 1-0.6 1.7c-0.6 1.1-1 1.6-1 1.6 0 0 3.8 2.7 8.1-0.6z"/>
			<path id="&lt;Path&gt;" class="s2" d="m122.1 81.3c-0.3-2.4 2.8-4.8 3.8-4 0.9 0.7 1.7 2.6 0.8 4-0.9 1.4-4.5 1.5-4.6 0z"/>
			<path id="&lt;Path&gt;" class="s1" d="m127.1 78.1c-0.2-0.8-0.5-1.6-0.6-2.4l-0.5-7.5h-3.3v7.9q-0.3 1.4-0.6 2.5c0.5-0.7 3-3.7 5-0.5z"/>
			<path id="&lt;Path&gt;" class="s1" d="m128.6 81.3c0 0-0.3-0.6-0.7-1.5q-0.2 0-0.2 0c-0.2 1.8-2.1 2.8-4 2.6-1.6-0.1-2.3-1.2-2.2-2.1-0.6 1.1-1 1.6-1 1.6 0 0 3.8 2.7 8.1-0.6z"/>
		</g>
		<g id="&lt;Group&gt;">
			<path id="&lt;Path&gt;" class="s19" d="m145 56.3c-2.3 4.4-0.3 9.9-0.3 9.9 0 0 2.1-1.6 1.8-6-0.3-3.5-1.5-3.9-1.5-3.9z"/>
			<path id="&lt;Path&gt;" class="s20" d="m144.7 65.2c0 0-0.6-0.4-1.4-0.8-0.5-0.2-1.1-0.5-1.8-0.7-0.7-0.3-1.5-0.5-2.3-0.6l-7.5-0.6v-3.3h7.8q1.5-0.2 2.5-0.6 1.1-0.3 1.8-0.6c1.1-0.5 1.5-1 1.5-1 0 0 2.7 3.9-0.6 8.2z"/>
			<path id="&lt;Path&gt;" class="s2" d="m144.7 58.6c-2.3-0.3-4.7 2.9-4 3.8 0.8 0.9 2.7 1.7 4 0.8 1.5-0.9 1.5-4.4 0-4.6z"/>
			<path id="&lt;Path&gt;" class="s1" d="m141.5 63.7c-0.7-0.3-1.5-0.5-2.3-0.6l-7.5-0.6v-3.3h7.8q1.5-0.2 2.5-0.6c-0.7 0.6-3.6 3-0.4 5z"/>
			<path id="&lt;Path&gt;" class="s1" d="m144.7 65.2c0 0-0.6-0.4-1.4-0.8q-0.1-0.2-0.1-0.2c1.9-0.1 2.9-2.1 2.7-3.9-0.2-1.7-1.2-2.4-2.1-2.3 1.1-0.5 1.5-1 1.5-1 0 0 2.7 3.9-0.6 8.2z"/>
		</g>
		<g id="&lt;Group&gt;">
			<path id="&lt;Path&gt;" class="s21" d="m104.4 56.3c2.2 4.4 0.3 9.9 0.3 9.9 0 0-2.1-1.6-1.8-6 0.3-3.5 1.5-3.9 1.5-3.9z"/>
			<path id="&lt;Path&gt;" class="s22" d="m104.7 65.2c0 0 0.6-0.4 1.4-0.8 0.5-0.2 1.1-0.5 1.8-0.7 0.7-0.3 1.5-0.5 2.3-0.6l7.5-0.6v-3.3h-7.8q-1.5-0.2-2.6-0.6-1-0.3-1.7-0.6c-1.1-0.5-1.5-1-1.5-1 0 0-2.8 3.9 0.6 8.2z"/>
			<path id="&lt;Path&gt;" class="s2" d="m104.7 58.6c2.3-0.3 4.7 2.9 4 3.8-0.8 0.9-2.7 1.7-4 0.8-1.5-0.9-1.5-4.4 0-4.6z"/>
			<path id="&lt;Path&gt;" class="s1" d="m107.9 63.7c0.7-0.3 1.5-0.5 2.3-0.6l7.5-0.6v-3.3h-7.8q-1.5-0.2-2.6-0.6c0.8 0.6 3.7 3 0.5 5z"/>
			<path id="&lt;Path&gt;" class="s1" d="m104.7 65.2c0 0 0.6-0.4 1.4-0.8q0.1-0.2 0.1-0.2c-1.9-0.1-2.9-2.1-2.7-3.9 0.2-1.7 1.2-2.4 2.1-2.3-1.1-0.5-1.5-1-1.5-1 0 0-2.8 3.9 0.6 8.2z"/>
		</g>
		<g id="&lt;Group&gt;">
			<path id="&lt;Path&gt;" class="s23" d="m142.5 72.1c-4.7 1.5-7.1 6.8-7.1 6.8 0 0 2.5 0.3 5.4-3 2.3-2.7 1.7-3.8 1.7-3.8z"/>
			<path id="&lt;Path&gt;" class="s24" d="m136.1 78.2c0 0-0.2-0.7-0.5-1.6-0.2-0.5-0.4-1.1-0.7-1.7-0.4-0.8-0.8-1.5-1.2-2.1l-5-5.7 2.3-2.4 5.6 5.6q1.2 0.8 2.2 1.4 1 0.5 1.7 0.7c1.1 0.4 1.8 0.4 1.8 0.4 0 0-0.8 4.7-6.2 5.4z"/>
			<path id="&lt;Path&gt;" class="s2" d="m140.7 73.5c-1.4-1.8-5.3-1.3-5.5-0.1-0.1 1.2 0.7 3.1 2.2 3.4 1.7 0.4 4.3-2.1 3.3-3.3z"/>
			<path id="&lt;Path&gt;" class="s1" d="m134.9 74.9c-0.4-0.8-0.8-1.5-1.2-2.1l-5-5.7 2.3-2.4 5.6 5.6q1.2 0.8 2.2 1.4c-0.9-0.2-4.7-0.5-3.9 3.2z"/>
			<path id="&lt;Path&gt;" class="s1" d="m136.1 78.2c0 0-0.2-0.7-0.5-1.6q0.1-0.1 0.1-0.1c1.4 1.2 3.5 0.5 4.7-1 1-1.2 0.8-2.5 0.1-3.1 1.1 0.4 1.8 0.4 1.8 0.4 0 0-0.8 4.7-6.2 5.4z"/>
		</g>
		<g id="&lt;Group&gt;">
			<path id="&lt;Path&gt;" class="s25" d="m113.8 43.4c-1.5 4.7-6.7 7.2-6.7 7.2 0 0-0.4-2.6 3-5.5 2.6-2.3 3.7-1.7 3.7-1.7z"/>
			<path id="&lt;Path&gt;" class="s26" d="m107.7 49.9c0 0 0.7 0.1 1.6 0.5 0.6 0.1 1.2 0.4 1.8 0.6 0.7 0.4 1.4 0.8 2.1 1.3l5.7 4.9 2.3-2.3-5.5-5.6q-0.9-1.2-1.4-2.2-0.5-0.9-0.8-1.7c-0.4-1.1-0.4-1.7-0.4-1.7 0 0-4.6 0.8-5.4 6.2z"/>
			<path id="&lt;Path&gt;" class="s2" d="m112.4 45.2c1.8 1.5 1.3 5.4 0.1 5.5-1.1 0.2-3-0.7-3.4-2.2-0.4-1.7 2.1-4.2 3.3-3.3z"/>
			<path id="&lt;Path&gt;" class="s1" d="m111.1 51c0.7 0.4 1.4 0.8 2.1 1.3l5.7 4.9 2.3-2.3-5.5-5.6q-0.9-1.2-1.4-2.2c0.1 0.9 0.4 4.7-3.3 3.9z"/>
			<path id="&lt;Path&gt;" class="s1" d="m107.7 49.9c0 0 0.7 0.1 1.6 0.5q0.2-0.1 0.2-0.1c-1.2-1.5-0.5-3.6 0.9-4.8 1.3-1 2.5-0.7 3.1-0.1-0.4-1.1-0.4-1.7-0.4-1.7 0 0-4.6 0.8-5.4 6.2z"/>
		</g>
		<g id="&lt;Group&gt;">
			<path id="&lt;Path&gt;" class="s27" d="m135.5 43.4c1.6 4.7 6.8 7.2 6.8 7.2 0 0 0.4-2.6-3-5.5-2.6-2.3-3.8-1.7-3.8-1.7z"/>
			<path id="&lt;Path&gt;" class="s28" d="m141.6 49.9c0 0-0.6 0.1-1.5 0.5-0.6 0.1-1.2 0.4-1.8 0.6-0.7 0.4-1.4 0.8-2.1 1.3l-5.7 4.9-2.3-2.3 5.5-5.6q0.9-1.2 1.4-2.2 0.5-0.9 0.8-1.7c0.4-1.1 0.4-1.7 0.4-1.7 0 0 4.6 0.8 5.3 6.2z"/>
			<path id="&lt;Path&gt;" class="s2" d="m137 45.2c-1.8 1.5-1.3 5.4-0.2 5.5 1.2 0.2 3.1-0.7 3.5-2.2 0.4-1.7-2.1-4.2-3.3-3.3z"/>
			<path id="&lt;Path&gt;" class="s1" d="m138.3 51c-0.7 0.4-1.4 0.8-2.1 1.3l-5.7 4.9-2.3-2.3 5.5-5.6q0.9-1.2 1.4-2.2c-0.1 0.9-0.4 4.7 3.3 3.9z"/>
			<path id="&lt;Path&gt;" class="s1" d="m141.6 49.9c0 0-0.6 0.1-1.5 0.5q-0.2-0.1-0.2-0.1c1.2-1.5 0.5-3.6-0.9-4.8-1.3-1-2.5-0.7-3.1-0.1 0.4-1.1 0.4-1.7 0.4-1.7 0 0 4.6 0.8 5.3 6.2z"/>
		</g>
		<g id="&lt;Group&gt;">
			<path id="&lt;Path&gt;" class="s29" d="m106.9 72.1c4.7 1.5 7.1 6.8 7.1 6.8 0 0-2.5 0.3-5.4-3-2.3-2.7-1.7-3.8-1.7-3.8z"/>
			<path id="&lt;Path&gt;" class="s30" d="m113.3 78.2c0 0 0.2-0.7 0.5-1.6 0.2-0.5 0.4-1.1 0.7-1.7 0.3-0.8 0.8-1.5 1.2-2.1l5-5.7-2.3-2.4-5.6 5.6q-1.2 0.8-2.2 1.4-1 0.5-1.7 0.7c-1.1 0.4-1.8 0.4-1.8 0.4 0 0 0.8 4.7 6.2 5.4z"/>
			<path id="&lt;Path&gt;" class="s2" d="m108.7 73.5c1.4-1.8 5.3-1.3 5.5-0.1 0.1 1.2-0.7 3.1-2.2 3.4-1.7 0.4-4.3-2.1-3.3-3.3z"/>
			<path id="&lt;Path&gt;" class="s1" d="m114.5 74.9c0.3-0.8 0.8-1.5 1.2-2.1l5-5.7-2.3-2.4-5.6 5.6q-1.2 0.8-2.2 1.4c0.9-0.2 4.7-0.5 3.9 3.2z"/>
			<path id="&lt;Path&gt;" class="s1" d="m113.3 78.2c0 0 0.2-0.7 0.5-1.6q-0.1-0.1-0.1-0.1c-1.4 1.2-3.5 0.5-4.7-1-1-1.2-0.8-2.5-0.1-3.1-1.1 0.4-1.8 0.4-1.8 0.4 0 0 0.8 4.7 6.2 5.4z"/>
		</g>
		<g id="&lt;Group&gt;">
			<path id="&lt;Path&gt;" class="s31" d="m134.5 61.3c-0.3 5.6-4.5 11.3-10.3 11.3-5.7 0-10-5.7-10.3-11.3-0.3-6 4.3-11.3 10.3-11.3 6.1 0 10.7 5.3 10.3 11.3z"/>
			<path id="&lt;Path&gt;" class="s2" d="m114.9 57.2c0.3 4.2 19 3 18.2 0-0.8-3.1-5.3-7.6-10.3-6.7-4.9 0.9-8 5.4-7.9 6.7z"/>
			<path id="&lt;Path&gt;" class="s1" d="m133.7 63.6c-0.7-5-19.6-4.9-19.8-2.3-0.2 2.6 1.8 10.5 10.3 10.9 6.9 0.2 9.5-7.8 9.5-8.6z"/>
			<path id="&lt;Path&gt;" class="s3" d="m116.5 55.2c-0.7 2 15.3-0.3 11.9-3.1-3.3-2.9-10.3-1.7-11.9 3.1z"/>
			<path id="&lt;Path&gt;" class="s32" d="m118.1 52.9c-0.1 0.7 1.4-0.2 1.3-0.6-0.1-0.3-1.2-0.2-1.3 0.6z"/>
		</g>
		<path id="&lt;Path&gt;" class="s33" d="m114.9 30.3c4.4 5.2 10.7 7 16.1 7.2 5.5 0.2 8.2-2.3 8.2-2.3 0 0-4.8 2.8-12.1 1.3-7.3-1.6-12.2-6.2-12.2-6.2z"/>
		<path id="&lt;Path&gt;" class="s33" d="m105.1 35.1c-0.8 2.6 4.3 6.8 6.9 7 0 0-1.8-1-4.1-3.3-2.4-2.3-2.8-3.7-2.8-3.7z"/>
		<path id="&lt;Path&gt;" class="s33" d="m143.6 50c5.6 0.9 9-3.5 9-3.5 0 0-1.1 1-4.6 2.1-3.4 1.1-4.4 1.4-4.4 1.4z"/>
		<path id="&lt;Path&gt;" class="s33" d="m154.7 64.4c-6 14.8-23.4 25.5-37.6 27.3 0 0 9.1-0.2 21-9.7 11.9-9.5 16.6-17.6 16.6-17.6z"/>
		<path id="&lt;Path&gt;" class="s33" d="m94.2 56.7c5.2 5.3 11.3 24.7 12.8 29.4 0 0-2.8-5.8-6.3-15.3-3.5-9.4-6.5-14.1-6.5-14.1z"/>
		<path id="&lt;Path&gt;" class="s34" d="m116.7 29.6c-0.5 4.3 12 7.4 16.1 6.8 4.1-0.6 6.7-3.7 2.9-5.9-3.8-2.1-18.6-4.1-19-0.9z"/>
		<path id="&lt;Path&gt;" class="s34" d="m106.9 34.4c-0.2 6.1 5.8 6.5 8.6 5 2.7-1.5 1.9-3.7 0.5-5.4-1.4-1.7-9.1-2.7-9.1 0.4z"/>
		<path id="&lt;Path&gt;" class="s34" d="m135.7 40c2.6 5.2 8.6 8.1 10.7 7.8 2.2-0.2 4.9-2 3.2-5.2-1.8-3.2-3.8-4.7-6.5-4.8-2.8-0.1-8.1 0.8-7.4 2.2z"/>
		<path id="&lt;Path&gt;" class="s34" d="m147.4 60.9c-0.9 6.4-4.9 14.2-4.2 14.5 0.6 0.4 10.5-8.1 11.1-12.5 0.5-4.3-6.3-5.7-6.9-2z"/>
		<path id="&lt;Path&gt;" class="s34" d="m98.6 43.8c-4.5 5.3-4.5 8.8-3.8 11.2 0.7 2.4 4.7 7.5 5.4 6.6 0.7-0.9 2.3-7.7 3-10.4 0.7-2.6-3.4-8.7-4.6-7.4z"/>
		<path id="&lt;Path&gt;" class="s34" d="m106.2 79.4c0.3 4.7 3.3 11.8 8.3 11.5 5-0.3 14.5-4 13.2-5.5-1.3-1.5-8-0.2-12.2-2.1-4.3-2-9.4-5.5-9.3-3.9z"/>
		<path id="&lt;Path&gt;" class="s34" d="m93.3 62.8c-2.3 10 5.5 18.3 6.8 18.6 1.3 0.3 1.9-4.9-0.6-10.3-2.5-5.4-5.8-10.3-6.2-8.3z"/>
		<path id="&lt;Path&gt;" class="s34" d="m127.5 92.8c5.2 3 14.5-2.8 19.7-8.4 5.1-5.6 3.7-8.2-4-2.5-7.6 5.8-17.4 9.8-15.7 10.9z"/>
		<path id="&lt;Path&gt;" class="s35" d="m145.8 51.2c-0.3 2.8 1 6.8 3 7 1.9 0.2 6.4 0 6.5-1.6 0.1-1.6-1.8-7.8-3.4-7.8-1.5 0-5.9 0.6-6.1 2.4z"/>
		<path id="&lt;Path&gt;" class="s35" d="m103.7 37c-2.4 1.8-2.7 4.4-2.4 5.7 0.2 1.2 2.1 5.4 4.2 4.8 2.2-0.6 4.7-4.1 3.8-5.3-0.8-1.3-4.3-6.2-5.6-5.2z"/>
	</g>
	<g id="&lt;Group&gt;">
		<path id="&lt;Path&gt;" class="s36" d="m76.6 121.8c5.4 9.5 26.9 43 47.4 40.6 20.5-2.5 48-37 46.4-38.8-1.6-1.8-97.8-8.9-93.8-1.8z"/>
		<path id="&lt;Path&gt;" class="s37" d="m247.2 79.1c-1.3-14.8-39.4-32.2-46.1-27.3-6.7 4.9-11.2 24.6-11.2 24.6 0 0-36.4-12-64.4-12.5q-0.4 0-0.9 0-0.4 0-0.9 0c-27.9 0.5-64.4 12.5-64.4 12.5 0 0-4.4-19.7-11.1-24.6-6.8-4.9-44.8 12.5-46.1 27.3-1.4 14.8 14.4 42.7 24.6 50.1 4.9 3.6 19.8 3.7 26.4 0.9 10.4-4.5 50.5-33.5 71.5-33.5 21.1 0 61.1 29 71.6 33.5 6.6 2.8 21.5 2.7 26.4-0.9 10.1-7.4 25.9-35.3 24.6-50.1z"/>
		<path id="&lt;Path&gt;" class="s38" d="m158.6 99.1c-25.2-9.7-42.7-9.7-67.9 0-25.2 9.7-33 20.9-64 30.1 0 0 9.5 5.6 24.3 1.5 9-2.6 32.4-18 43.5-25.3 11-7.1 29.6-8.8 30.1-8.8 0.6 0 19.2 1.7 30.1 8.8 11.2 7.3 36.7 24.5 46 26 14.3 2.4 21.9-2.2 21.9-2.2-31-9.2-38.8-20.4-64-30.1z"/>
		<path id="&lt;Path&gt;" class="s39" d="m75.6 112.3v7.7c10.5 15.9 37.8 37.4 49 38.1 11.3-0.7 38.6-22.2 49.1-38.1v-7.7z"/>
		<path id="&lt;Path&gt;" class="s40" d="m173.7 112.3c-4.6 7-12.4 15.1-20.7 22q-2.9 2.4-5.8 4.5c-5.2 3.9-10.4 7.2-14.8 9.3q-1.5 0.7-2.9 1.2c-1.8 0.7-3.5 1.1-4.9 1.2-3.5-0.2-8.7-2.6-14.5-6.1q-1.3-0.8-2.6-1.7c-2.4-1.6-4.9-3.4-7.4-5.4q-2-1.5-3.9-3.1c-8.3-6.9-16-14.9-20.6-21.9 0 0 2.5-1.8 6.9-4.2q1.9-1.1 4.3-2.3c4.7-2.4 10.7-5.1 17.4-7.3q1.2-0.4 2.4-0.7c5.6-1.7 11.7-3 18-3.6 9.5 0.9 18.4 3.4 26 6.3q0 0 0 0 1.3 0.5 2.6 1 1.5 0.6 2.9 1.3 1.8 0.7 3.4 1.5c2.3 1.1 4.4 2.2 6.2 3.2q1.6 0.8 2.8 1.6c3.3 1.9 5.2 3.2 5.2 3.2z"/>
		<g id="&lt;Group&gt;">
			<path id="&lt;Compound Path&gt;" class="s41" d="m150.7 109.2c-0.1 0.3-0.2 0.9 0 1.3q0 0.4 0.1 0.9v-1.5q0-0.3-0.1-0.7zm-1.7 1.4c0 1-0.1 2-0.1 2.8-0.1 0.5-0.2 2.2-0.2 3.7 0.1-1 0.1-1.9 0.2-2.2 0-1.3 0.2-2.9 0.1-4.3zm-6.8-1.1q0.1 0.1 0.1 0.3 0.1-0.4 0.1-0.8-0.2 0.2-0.2 0.5z"/>
		</g>
		<g id="&lt;Group&gt;">
			<path id="&lt;Path&gt;" class="s13" d="m59.3 76.4c1.6 9.6-9.6 17.4-21.2 17-7.3-0.2-11.7-7.1-12.3-13-0.4-3.8 1-8.8 1-8.8 0 0 0 17.5 9.8 16 5.7-0.8 11.9-7.2 13.9-16 2.5-11.2-5.1-20.7-5.1-20.7 6.5-0.8 13.1 20.6 13.9 25.5z"/>
			<path id="&lt;Path&gt;" class="s36" d="m26.4 83.8c2.2 10.1 8.2 18.7 16.3 18.5 8-0.2 15.8-19.5 15.8-19.5 0 0-7-0.6-18 4-8.8 3.7-14.1-3-14.1-3z"/>
			<path id="&lt;Path&gt;" class="s42" d="m30.2 82c4.2 7.4 14.5 2.6 17.9-7.6 3.4-10.3-9.7-18.2-15.5-10.5-5.8 7.7-5 13.5-2.4 18.1z"/>
			<path id="&lt;Path&gt;" class="s42" d="m58.3 81.7c-4.8 2.2-11.3 2.3-11.4 1.4-0.2-0.9 4.7-8.9 5.1-14.4 0.5-5.4 5.3 2.5 6.3 6.4 1.1 3.9 1.7 5.8 0 6.6z"/>
			<path id="&lt;Path&gt;" class="s36" d="m27.5 70.7c-1.6 1.7-1.7 7.8-1.7 7.8z"/>
		</g>
		<g id="&lt;Group&gt;">
			<path id="&lt;Path&gt;" class="s13" d="m190.1 76.4c-1.6 9.6 9.6 17.4 21.2 17 7.3-0.2 11.7-7.1 12.3-13 0.4-3.8-1-8.8-1-8.8 0 0 0 17.5-9.8 16-5.6-0.8-11.9-7.2-13.9-16-2.5-11.2 5.2-20.7 5.2-20.7-6.8-0.2-12.9 18.7-14 25.5z"/>
			<path id="&lt;Path&gt;" class="s36" d="m223 83.8c-2.2 10.1-8.2 18.7-16.2 18.5-8.1-0.2-15.9-19.5-15.9-19.5 0 0 7-0.6 18.1 4 8.7 3.7 14-3 14-3z"/>
			<path id="&lt;Path&gt;" class="s42" d="m219.2 82c-4.1 7.4-14.4 2.6-17.9-7.6-3.4-10.3 9.7-18.2 15.5-10.5 5.8 7.7 5 13.5 2.4 18.1z"/>
			<path id="&lt;Path&gt;" class="s42" d="m191.1 81.7c4.8 2.2 11.3 2.3 11.4 1.4 0.2-0.9-4.6-8.9-5.1-14.4-0.4-5.4-5.2 2.5-6.3 6.4-1.1 3.9-1.7 5.8 0 6.6z"/>
			<path id="&lt;Path&gt;" class="s36" d="m222 70.7c1.5 1.7 1.6 7.8 1.6 7.8z"/>
		</g>
		<path id="&lt;Path&gt;" class="s14" d="m159.5 104.3c-6 7.5-22.2 28.5-27.1 43.8q-1.5 0.7-2.9 1.2c1.6-25.3 18.1-40.5 26.6-46.5q1.8 0.7 3.4 1.5z"/>
		<path id="&lt;Path&gt;" class="s14" d="m153.2 101.5c-15.7 6.3-32.9 26.7-43.1 42.9q-1.3-0.8-2.6-1.7c12.5-19.7 37-37.9 43.1-42.2q0 0 0 0 1.3 0.5 2.6 1z"/>
		<path id="&lt;Path&gt;" class="s14" d="m137.1 103.3c-8.6 14.7-28.4 26.1-33.2 19.8-2.7-3.5-1.4-15 0.3-24.6q1.2-0.4 2.4-0.7c-1 6.7-0.1 13.4 7.2 13.2 7.1-0.1 22-4.8 20.6-11.7-1.1-5.3-13.2-2.4-14.5 0.4-1.3 2.8 6.2 0.4 5.8 2.4-0.5 2-11.4 5.5-12.1 0.7-0.7-4.9 8.4-6.6 15.6-7.3 7.3-0.6 10 4.2 7.9 7.8z"/>
		<path id="&lt;Path&gt;" class="s42" d="m136.5 123.4c-3.1 4.2-6.9 17.8-8.5 21-3 6-15.3 3.3-11.7-5.6 3.5-8.5 12.9-17.7 15.5-19 2.5-1.2 9.6-3.2 4.7 3.6z"/>
		<path id="&lt;Path&gt;" class="s42" d="m143.3 138.8c-1.2-6.7 1.4-13.3 3.5-16.4 2-3.1 11.4-12.3 11.6-10 0.2 2.2-14.6 29.5-15.1 26.4z"/>
		<path id="&lt;Path&gt;" class="s13" d="m108.3 141.4c9.5-14 19.8-22.2 19.8-22.2 0 0-4.5 4.2-11 11.5-5.7 6.4-8.8 10.7-8.8 10.7z"/>
		<path id="&lt;Path&gt;" class="s43" d="m132.5 109.6c-9.4 11.1-22.2 14.4-22.5 14-0.4-0.3 0.3-11.9 1-12.1 0.8-0.3 7 0.9 16.7-3.3 3.6-1.6 7.3-1.7 4.8 1.4z"/>
		<path id="&lt;Path&gt;" class="s14" d="m100.1 137.3q-2-1.5-3.9-3.1c0 0-7.3-6.8-9.2-11.2-3.4-7.7-4.5-14.9-4.5-14.9q1.9-1.1 4.3-2.3c0 0 0.2 15.7 13.3 31.5z"/>
		<path id="&lt;Path&gt;" class="s14" d="m168.5 109.1c-6.9 5.6-12.4 17.2-15.5 25.2q-2.9 2.4-5.8 4.5c2.9-7.7 8.6-20.2 18.5-31.3q1.6 0.8 2.8 1.6z"/>
		<path id="&lt;Path&gt;" class="s13" d="m155.3 103.4c-9 7.7-20.3 24.2-24 34.6 0 0 2.8-11.3 9.7-20.3 6.9-9.1 14.3-14.3 14.3-14.3z"/>
		<path id="&lt;Path&gt;" class="s13" d="m136.9 98.3c-3.6-2-10-3.5-17.6-0.9 0 0 9.4-3.4 13.3-1.8 3.9 1.6 4.3 2.7 4.3 2.7z"/>
		<path id="&lt;Path&gt;" class="s13" d="m125.7 102.1c-4.1-0.3-5.8-1.3-5.8-1.3 0 0 3.4 0.4 4.8 0.4 1.4 0 1 0.9 1 0.9z"/>
		<path id="&lt;Path&gt;" class="s13" d="m86.8 105.8c-2.9 6.6 3.8 18.3 7.4 23.2 0 0-5.3-9-6.4-14.7-1.1-5.6-1-8.5-1-8.5z"/>
		<path id="&lt;Path&gt;" class="s42" d="m101.2 100.6c-9.4 0.7-11.9 5-12.9 8.8-0.9 3.7 8 22.9 12 25.3 4 2.4 2-10.1 2-12.1 0-2 1.6-22.2-1.1-22z"/>
		<path id="&lt;Path&gt;" class="s42" d="m123.3 100.1c4.9 0.4 10.4-0.8 9.1-1.9-1.3-1.1-5.3-1.6-8.2-0.6-2.9 1-3 2.3-0.9 2.5z"/>
		<path id="&lt;Path&gt;" class="s42" d="m168.5 110.9c-8.6 6.5-12.8 16.5-10.7 16.8 2.1 0.3 13.4-11.8 13.8-13.5 0.5-1.6-1.3-4.6-3.1-3.3z"/>
		<path id="&lt;Path&gt;" class="s44" d="m124.2 157.8c3.9-4.9-19.3-15.7-27.9-22.6-8.6-6.9-14.1-11.6-19.4-14.2-1.5-0.7 10.5 15.4 25.4 25.5 15 10.1 21.3 12 21.9 11.3z"/>
		<path id="&lt;Path&gt;" class="s44" d="m126.3 152.7c-2 2.5-2 5.1-0.9 5.2 1 0.2 20.8-8.4 33-21.4 12.2-12.9 7.1-11.8 5.4-11.3-1.6 0.4-5.1 5.3-17.8 14.4-12.6 9-18.7 11.7-19.7 13.1z"/>
		<path id="&lt;Path&gt;" class="s44" d="m77.6 115.1c13.1-8.4 27.7-17.4 46.2-18.2 11.9-0.5 47.2 14.8 47.8 17.3 0.6 2.6 3.3 3.4 4.9 4.8 1.6 1.4 21.1 11.8 31.1 11 10-0.8-45.8-38.4-84.2-37.8-33.5 0.6-74.5 28.6-75.3 29.8-0.8 1.2 3.8 5.8 13.1 2.6 9.2-3.2 14.2-6.6 14.4-7.6 0.2-1 2-1.9 2-1.9z"/>
		<path id="&lt;Path&gt;" class="s45" d="m196.2 93.8c-16.6 0.2-33.6 1.3-47 1.3-2.4 0-17.6-3.8-25-3-18.9 2-27.1 1.9-28.3 1.4-0.3-0.2-1.5-19.8-0.3-20.3 3-1.3 77.7-1.6 80.5-0.6 2.8 1 13.6 5.2 13.9 6.4 0.3 1.2 6.2 14.8 6.2 14.8z"/>
		<path id="&lt;Path&gt;" class="s46" d="m96.3 73.2c27.7 3.2 79.8-0.6 79.8-0.6l-6.9-1z"/>
		<path id="&lt;Path&gt;" class="s36" d="m94.9 72.4l0.5 25.2h0.5l-0.5-25z"/>
		<path id="&lt;Path&gt;" class="s46" d="m11.4 101.1c20.6 7 56.6 6.1 56.6 6.1 0 0-17.3-1.2-34.8-3.3-17.6-2.1-21.8-2.8-21.8-2.8z"/>
		<path id="&lt;Path&gt;" class="s46" d="m29 82.2c1 3.8 3.8 6.2 7.6 5.4 3.9-0.8 6.7-3.4 6.7-3.4 0 0-3.8 1.8-8.5 0.8-4.6-1-5.8-2.8-5.8-2.8z"/>
		<path id="&lt;Path&gt;" class="s46" d="m204 82.5c5.2 6.4 11.5 7.4 15.6 1.7 0 0-1.9 2.6-7.1 1.7-5.2-0.9-8.5-3.4-8.5-3.4z"/>
		<path id="&lt;Path&gt;" class="s46" d="m179 107.4c7 3.3 18.6 2 18.6 2z"/>
		<path id="&lt;Path&gt;" class="s36" d="m226.7 111.9c-1.3-1-4.7-2.8-6.4-3.3-1.7-0.6-3.4 1.2-3.7 1.5-15.1-1.7-41.6-3.5-40.8-3.2 1.2 0.5 16.3 2 31.2 3.4 19 1.8 27.3 4 27.3 4 0 0-4.8-1.4-7.6-2.4z"/>
		<path id="&lt;Path&gt;" class="s36" d="m169.8 71.5c0 0-6-1.3-31.3-1.3-9.9 0-21.9 0.6-32.9 1.3-0.6-0.4-1.2-0.6-1.5-0.6-0.4 0-4.9 0.7-7.9 1.2-13 0.9-22.8 1.8-22.8 1.8 13.9 0 96.4-2.4 96.4-2.4z"/>
		<path id="&lt;Path&gt;" class="s36" d="m58.3 103.2c-3.7-1.3-6.5-0.4-6.5-0.4l-5.4 1.7c-21.7-2.4-39.6-4.5-39.6-4.5 0 0 2.8 1.5 28.8 4.4 26.1 2.8 36.2 2.7 36.2 2.7q-5.3-0.5-10.6-1.1z"/>
		<path id="&lt;Path&gt;" class="s36" d="m54.2 105.9c-4.5-0.5-7.5-1.2-7.5-1.2 0 0 4.7-2.3 7.8-2.2 3.2 0.2 6.1 3.6 6.1 3.6z"/>
		<path id="&lt;Path&gt;" class="s42" d="m190.1 111.5c0.9 1.4 24.4 14 29.8 15.3 5.3 1.3 14.2-9.8 12.4-11.2-1.8-1.5-43.4-6.2-42.2-4.1z"/>
		<path id="&lt;Path&gt;" class="s42" d="m12.9 106.7c1.9 6.7 6 19.2 12.8 19.8 6.7 0.6 38-12.1 32.6-15.8-5.3-3.7-46-6-45.4-4z"/>
		<path id="&lt;Path&gt;" class="s42" d="m55.7 98.9c7.7 3.5 24.5 3.1 28.2 1.4 9.6-4.6 11.4-21.9 5.6-23.7-5.8-1.8-25.1-1.2-27.3 2-2.3 3.2-9.1 19.1-6.5 20.3z"/>
		<path id="&lt;Path&gt;" class="s47" d="m223.1 65.7c2.8 16.7 1 20.5 8.6 22.9 7.6 2.4 15.9-3.8 13.7-10.8-2.2-7-23.3-17.9-22.3-12.1z"/>
		<path id="&lt;Path&gt;" class="s47" d="m21.6 63.9c-15.4 5.1-19.5 16.3-17.7 23.5 1.8 7.3 13.3 14.9 18.5 12.3 5.2-2.6 2.5-36.9-0.8-35.8z"/>
		<path id="&lt;Path&gt;" class="s47" d="m97.1 88c15.3 0 93.6-1.8 93.6-1.8l0.2-3.4-95.4 2.2-0.2 3.2z"/>
		<path id="&lt;Path&gt;" class="s47" d="m223.3 94.7c0.6 3.7 7.4 3.6 5.8-0.8-1.6-4.5-6.4-3.1-5.8 0.8z"/>
		<path id="&lt;Path&gt;" class="s47" d="m237.5 93.9c-6.4 2.5-15.6 9.6-14 12.6 1.6 3 6.4 7 10.4 4.4 4-2.6 10.9-19.9 3.6-17z"/>
		<g id="&lt;Group&gt;">
			<path id="&lt;Path&gt;" class="s48" d="m113 145.6c-2.6 3 2.2 6.1 3.9 3.7 1.8-2.5-2.1-5.8-3.9-3.7z"/>
			<path id="&lt;Path&gt;" class="s49" d="m112.5 146.4c-0.2 1.7 6.1 2.1 3.8-0.6-1.7-2-3.7-0.1-3.8 0.6z"/>
			<path id="&lt;Path&gt;" class="s50" d="m112.9 149c1.9 2.3 4.1 0.5 4.1 0-0.1-0.5-5-1-4.1 0z"/>
		</g>
		<g id="&lt;Group&gt;">
			<path id="&lt;Path&gt;" class="s48" d="m167.4 117.5c-4.8 5.7-1.6 9.6 1.9 5.1 3.5-4.5 1.3-8.9-1.9-5.1z"/>
			<path id="&lt;Path&gt;" class="s49" d="m166.3 119c-1.4 2.9 5.3 2 4.5-1.8-0.6-2.9-4 0.7-4.5 1.8z"/>
			<path id="&lt;Path&gt;" class="s50" d="m165.1 123.1c0.6 3.3 4.1-0.1 4.4-0.9 0.3-0.9-4.7-0.5-4.4 0.9z"/>
		</g>
	</g>
</svg>